<?xml version="1.0" encoding="utf-8"?>
<!-- Generator: Adobe Illustrator 22.1.0, SVG Export Plug-In . SVG Version: 6.00 Build 0)  -->
<svg version="1.1" id="Layer_1" xmlns="http://www.w3.org/2000/svg" xmlns:xlink="http://www.w3.org/1999/xlink" x="0px" y="0px"
	 viewBox="0 0 512 512" style="enable-background:new 0 0 512 512;" xml:space="preserve">
<g>
	<path d="M235.5,235.5c-11.3,11.3-11.3,29.7,0,41.1c11.3,11.3,29.7,11.3,41.1,0c11.3-11.3,11.3-29.7,0-41.1
		C265.2,224.1,246.8,224.1,235.5,235.5z M256,31C131.7,31,31,131.7,31,256s100.7,225,225,225s225-100.7,225-225S380.3,31,256,31z
		 M370.4,165.3l-59.9,131c-2.9,6.3-8,11.4-14.3,14.3l-131,59.9c-15.1,6.9-30.7-8.7-23.8-23.8l59.9-131c2.9-6.3,8-11.4,14.3-14.3
		l131-59.9C361.8,134.7,377.3,150.2,370.4,165.3L370.4,165.3z"/>
</g>
</svg>
